<?xml version="1.0" encoding="UTF-8" standalone="no"?>
<!DOCTYPE svg PUBLIC "-//W3C//DTD SVG 1.1//EN"
 "http://www.w3.org/Graphics/SVG/1.1/DTD/svg11.dtd">
<!-- Generated by graphviz version 2.49.1 (0)
 -->
<!-- Title: dependency&#45;cruiser output Pages: 1 -->
<svg width="298pt" height="154pt"
 viewBox="0.00 0.00 298.00 154.00" xmlns="http://www.w3.org/2000/svg" xmlns:xlink="http://www.w3.org/1999/xlink">
<g id="graph0" class="graph" transform="scale(1 1) rotate(0) translate(4 150)">
<title>dependency&#45;cruiser output</title>
<polygon fill="white" stroke="transparent" points="-4,4 -4,-150 294,-150 294,4 -4,4"/>
<g id="clust1" class="cluster">
<title>cluster_src</title>
<path fill="#ffffff" stroke="black" stroke-width="2" d="M20,-26C20,-26 216,-26 216,-26 222,-26 228,-32 228,-38 228,-38 228,-126 228,-126 228,-132 222,-138 216,-138 216,-138 20,-138 20,-138 14,-138 8,-132 8,-126 8,-126 8,-38 8,-38 8,-32 14,-26 20,-26"/>
<text text-anchor="middle" x="118" y="-126.8" font-family="Helvetica,sans-Serif" font-weight="bold" font-size="9.00">src</text>
</g>
<g id="clust2" class="cluster">
<title>cluster_src/entities</title>
<path fill="#ffffff" stroke="black" stroke-width="2" d="M162,-34C162,-34 208,-34 208,-34 214,-34 220,-40 220,-46 220,-46 220,-74 220,-74 220,-80 214,-86 208,-86 208,-86 162,-86 162,-86 156,-86 150,-80 150,-74 150,-74 150,-46 150,-46 150,-40 156,-34 162,-34"/>
<text text-anchor="middle" x="185" y="-74.8" font-family="Helvetica,sans-Serif" font-weight="bold" font-size="9.00">entities</text>
</g>
<!-- path -->
<g id="node1" class="node">
<title>path</title>
<path fill="#ffffcc" stroke="grey" d="M133.5,-18C133.5,-18 91.5,-18 91.5,-18 88.5,-18 85.5,-15 85.5,-12 85.5,-12 85.5,-6 85.5,-6 85.5,-3 88.5,0 91.5,0 91.5,0 133.5,0 133.5,0 136.5,0 139.5,-3 139.5,-6 139.5,-6 139.5,-12 139.5,-12 139.5,-15 136.5,-18 133.5,-18"/>
<text text-anchor="middle" x="112.5" y="-6.8" font-family="Helvetica,sans-Serif" font-size="9.00" fill="grey">path</text>
</g>
<!-- src/api.ts -->
<g id="node2" class="node">
<title>src/api.ts</title>
<g id="a_node2"><a xlink:href="https://github.com/dragonman225-alt/shorturl/tree/master/backend/src/api.ts" xlink:title="api.ts">
<path fill="#ddfeff" stroke="black" d="M133.5,-56C133.5,-56 91.5,-56 91.5,-56 88.5,-56 85.5,-53 85.5,-50 85.5,-50 85.5,-44 85.5,-44 85.5,-41 88.5,-38 91.5,-38 91.5,-38 133.5,-38 133.5,-38 136.5,-38 139.5,-41 139.5,-44 139.5,-44 139.5,-50 139.5,-50 139.5,-53 136.5,-56 133.5,-56"/>
<text text-anchor="middle" x="112.5" y="-44.8" font-family="Helvetica,sans-Serif" font-size="9.00">api.ts</text>
</a>
</g>
</g>
<!-- src/entities/url.ts -->
<g id="node3" class="node">
<title>src/entities/url.ts</title>
<g id="a_node3"><a xlink:href="https://github.com/dragonman225-alt/shorturl/tree/master/backend/src/entities/url.ts" xlink:title="url.ts">
<path fill="#ddfeff" stroke="black" d="M206,-60C206,-60 164,-60 164,-60 161,-60 158,-57 158,-54 158,-54 158,-48 158,-48 158,-45 161,-42 164,-42 164,-42 206,-42 206,-42 209,-42 212,-45 212,-48 212,-48 212,-54 212,-54 212,-57 209,-60 206,-60"/>
<text text-anchor="middle" x="185" y="-48.8" font-family="Helvetica,sans-Serif" font-size="9.00">url.ts</text>
</a>
</g>
</g>
<!-- src/index.ts -->
<g id="node4" class="node">
<title>src/index.ts</title>
<g id="a_node4"><a xlink:href="https://github.com/dragonman225-alt/shorturl/tree/master/backend/src/index.ts" xlink:title="index.ts">
<path fill="#ddfeff" stroke="black" d="M64,-71C64,-71 22,-71 22,-71 19,-71 16,-68 16,-65 16,-65 16,-59 16,-59 16,-56 19,-53 22,-53 22,-53 64,-53 64,-53 67,-53 70,-56 70,-59 70,-59 70,-65 70,-65 70,-68 67,-71 64,-71"/>
<text text-anchor="middle" x="43" y="-59.8" font-family="Helvetica,sans-Serif" font-size="9.00">index.ts</text>
</a>
</g>
</g>
<!-- src/index.ts&#45;&gt;path -->
<g id="edge4" class="edge">
<title>src/index.ts&#45;&gt;path</title>
<path fill="none" stroke="#000000" stroke-dasharray="5,2" stroke-opacity="0.200000" d="M51.64,-52.78C59.03,-44.27 70.85,-31.69 83,-23 83.76,-22.46 84.54,-21.93 85.34,-21.41"/>
<polygon fill="#000000" fill-opacity="0.200000" stroke="#000000" stroke-opacity="0.200000" points="86.71,-23.03 90.79,-18.16 84.56,-19.43 86.71,-23.03"/>
</g>
<!-- src/index.ts&#45;&gt;src/api.ts -->
<g id="edge1" class="edge">
<title>src/index.ts&#45;&gt;src/api.ts</title>
<path fill="none" stroke="#000000" stroke-width="2" stroke-opacity="0.200000" d="M70.29,-56.16C73.19,-55.51 76.17,-54.85 79.13,-54.19"/>
<polygon fill="#000000" fill-opacity="0.200000" stroke="#000000" stroke-width="2" stroke-opacity="0.200000" points="79.77,-56.2 85.17,-52.85 78.86,-52.1 79.77,-56.2"/>
</g>
<!-- src/service.ts -->
<g id="node5" class="node">
<title>src/service.ts</title>
<g id="a_node5"><a xlink:href="https://github.com/dragonman225-alt/shorturl/tree/master/backend/src/service.ts" xlink:title="service.ts">
<path fill="#ddfeff" stroke="black" d="M136,-86C136,-86 89,-86 89,-86 86,-86 83,-83 83,-80 83,-80 83,-74 83,-74 83,-71 86,-68 89,-68 89,-68 136,-68 136,-68 139,-68 142,-71 142,-74 142,-74 142,-80 142,-80 142,-83 139,-86 136,-86"/>
<text text-anchor="middle" x="112.5" y="-74.8" font-family="Helvetica,sans-Serif" font-size="9.00">service.ts</text>
</a>
</g>
</g>
<!-- src/index.ts&#45;&gt;src/service.ts -->
<g id="edge2" class="edge">
<title>src/index.ts&#45;&gt;src/service.ts</title>
<path fill="none" stroke="#000000" stroke-width="2" stroke-opacity="0.200000" d="M70.29,-67.84C72.49,-68.33 74.74,-68.83 76.99,-69.33"/>
<polygon fill="#000000" fill-opacity="0.200000" stroke="#000000" stroke-width="2" stroke-opacity="0.200000" points="76.62,-71.4 82.94,-70.65 77.53,-67.3 76.62,-71.4"/>
</g>
<!-- src/utils.ts -->
<g id="node6" class="node">
<title>src/utils.ts</title>
<g id="a_node6"><a xlink:href="https://github.com/dragonman225-alt/shorturl/tree/master/backend/src/utils.ts" xlink:title="utils.ts">
<path fill="#ddfeff" stroke="black" d="M206,-112C206,-112 164,-112 164,-112 161,-112 158,-109 158,-106 158,-106 158,-100 158,-100 158,-97 161,-94 164,-94 164,-94 206,-94 206,-94 209,-94 212,-97 212,-100 212,-100 212,-106 212,-106 212,-109 209,-112 206,-112"/>
<text text-anchor="middle" x="185" y="-100.8" font-family="Helvetica,sans-Serif" font-size="9.00">utils.ts</text>
</a>
</g>
</g>
<!-- src/index.ts&#45;&gt;src/utils.ts -->
<g id="edge3" class="edge">
<title>src/index.ts&#45;&gt;src/utils.ts</title>
<path fill="none" stroke="#000000" stroke-width="2" stroke-opacity="0.200000" d="M53,-71.28C60.37,-78.25 71.43,-87.35 83,-92 104.8,-100.76 131.27,-103.38 151.63,-103.88"/>
<polygon fill="#000000" fill-opacity="0.200000" stroke="#000000" stroke-width="2" stroke-opacity="0.200000" points="151.72,-105.98 157.75,-103.97 151.78,-101.78 151.72,-105.98"/>
</g>
<!-- src/service.ts&#45;&gt;src/entities/url.ts -->
<g id="edge5" class="edge">
<title>src/service.ts&#45;&gt;src/entities/url.ts</title>
<path fill="none" stroke="#000000" stroke-width="2" stroke-opacity="0.200000" d="M138.16,-67.91C143.07,-66.1 148.28,-64.17 153.36,-62.3"/>
<polygon fill="#000000" fill-opacity="0.200000" stroke="#000000" stroke-width="2" stroke-opacity="0.200000" points="154.33,-64.18 159.24,-60.13 152.88,-60.24 154.33,-64.18"/>
</g>
<!-- src/service.ts&#45;&gt;src/utils.ts -->
<g id="edge6" class="edge">
<title>src/service.ts&#45;&gt;src/utils.ts</title>
<path fill="none" stroke="#000000" stroke-width="2" stroke-opacity="0.200000" d="M138.16,-86.09C143.07,-87.9 148.28,-89.83 153.36,-91.7"/>
<polygon fill="#000000" fill-opacity="0.200000" stroke="#000000" stroke-width="2" stroke-opacity="0.200000" points="152.88,-93.76 159.24,-93.87 154.33,-89.82 152.88,-93.76"/>
</g>
<!-- url -->
<g id="node7" class="node">
<title>url</title>
<path fill="#ffffcc" stroke="grey" d="M284,-112C284,-112 242,-112 242,-112 239,-112 236,-109 236,-106 236,-106 236,-100 236,-100 236,-97 239,-94 242,-94 242,-94 284,-94 284,-94 287,-94 290,-97 290,-100 290,-100 290,-106 290,-106 290,-109 287,-112 284,-112"/>
<text text-anchor="middle" x="263" y="-100.8" font-family="Helvetica,sans-Serif" font-size="9.00" fill="grey">url</text>
</g>
<!-- src/utils.ts&#45;&gt;url -->
<g id="edge7" class="edge">
<title>src/utils.ts&#45;&gt;url</title>
<path fill="none" stroke="#000000" stroke-dasharray="5,2" stroke-opacity="0.200000" d="M212.15,-103C217.77,-103 223.76,-103 229.58,-103"/>
<polygon fill="#000000" fill-opacity="0.200000" stroke="#000000" stroke-opacity="0.200000" points="229.8,-105.1 235.8,-103 229.8,-100.9 229.8,-105.1"/>
</g>
</g>
</svg>
