<?xml version="1.0" encoding="UTF-8" standalone="no"?>
<!DOCTYPE svg PUBLIC "-//W3C//DTD SVG 1.1//EN"
 "http://www.w3.org/Graphics/SVG/1.1/DTD/svg11.dtd">
<!-- Generated by graphviz version 2.49.1 (0)
 -->
<!-- Title: dependency&#45;cruiser output Pages: 1 -->
<svg width="380pt" height="154pt"
 viewBox="0.00 0.00 380.00 154.00" xmlns="http://www.w3.org/2000/svg" xmlns:xlink="http://www.w3.org/1999/xlink">
<g id="graph0" class="graph" transform="scale(1 1) rotate(0) translate(4 150)">
<title>dependency&#45;cruiser output</title>
<polygon fill="white" stroke="transparent" points="-4,4 -4,-150 376,-150 376,4 -4,4"/>
<g id="clust1" class="cluster">
<title>cluster_src</title>
<path fill="#ffffff" stroke="black" stroke-width="2" d="M20,-26C20,-26 298,-26 298,-26 304,-26 310,-32 310,-38 310,-38 310,-126 310,-126 310,-132 304,-138 298,-138 298,-138 20,-138 20,-138 14,-138 8,-132 8,-126 8,-126 8,-38 8,-38 8,-32 14,-26 20,-26"/>
<text text-anchor="middle" x="159" y="-126.8" font-family="Helvetica,sans-Serif" font-weight="bold" font-size="9.00">src</text>
</g>
<g id="clust2" class="cluster">
<title>cluster_src/entities</title>
<path fill="#ffffff" stroke="black" stroke-width="2" d="M244,-34C244,-34 290,-34 290,-34 296,-34 302,-40 302,-46 302,-46 302,-74 302,-74 302,-80 296,-86 290,-86 290,-86 244,-86 244,-86 238,-86 232,-80 232,-74 232,-74 232,-46 232,-46 232,-40 238,-34 244,-34"/>
<text text-anchor="middle" x="267" y="-74.8" font-family="Helvetica,sans-Serif" font-weight="bold" font-size="9.00">entities</text>
</g>
<!-- path -->
<g id="node1" class="node">
<title>path</title>
<path fill="#ffffcc" stroke="grey" d="M138.5,-18C138.5,-18 96.5,-18 96.5,-18 93.5,-18 90.5,-15 90.5,-12 90.5,-12 90.5,-6 90.5,-6 90.5,-3 93.5,0 96.5,0 96.5,0 138.5,0 138.5,0 141.5,0 144.5,-3 144.5,-6 144.5,-6 144.5,-12 144.5,-12 144.5,-15 141.5,-18 138.5,-18"/>
<text text-anchor="middle" x="117.5" y="-6.8" font-family="Helvetica,sans-Serif" font-size="9.00" fill="grey">path</text>
</g>
<!-- src/api.ts -->
<g id="node2" class="node">
<title>src/api.ts</title>
<g id="a_node2"><a xlink:href="https://github.com/dragonman225-alt/shorturl/tree/master/backend/src/api.ts" xlink:title="api.ts">
<path fill="#ddfeff" stroke="black" d="M138.5,-56C138.5,-56 96.5,-56 96.5,-56 93.5,-56 90.5,-53 90.5,-50 90.5,-50 90.5,-44 90.5,-44 90.5,-41 93.5,-38 96.5,-38 96.5,-38 138.5,-38 138.5,-38 141.5,-38 144.5,-41 144.5,-44 144.5,-44 144.5,-50 144.5,-50 144.5,-53 141.5,-56 138.5,-56"/>
<text text-anchor="middle" x="117.5" y="-44.8" font-family="Helvetica,sans-Serif" font-size="9.00">api.ts</text>
</a>
</g>
</g>
<!-- src/controller.ts -->
<g id="node3" class="node">
<title>src/controller.ts</title>
<g id="a_node3"><a xlink:href="https://github.com/dragonman225-alt/shorturl/tree/master/backend/src/controller.ts" xlink:title="controller.ts">
<path fill="#ddfeff" stroke="black" d="M146,-88C146,-88 89,-88 89,-88 86,-88 83,-85 83,-82 83,-82 83,-76 83,-76 83,-73 86,-70 89,-70 89,-70 146,-70 146,-70 149,-70 152,-73 152,-76 152,-76 152,-82 152,-82 152,-85 149,-88 146,-88"/>
<text text-anchor="middle" x="117.5" y="-76.8" font-family="Helvetica,sans-Serif" font-size="9.00">controller.ts</text>
</a>
</g>
</g>
<!-- src/service.ts -->
<g id="node4" class="node">
<title>src/service.ts</title>
<g id="a_node4"><a xlink:href="https://github.com/dragonman225-alt/shorturl/tree/master/backend/src/service.ts" xlink:title="service.ts">
<path fill="#ddfeff" stroke="black" d="M218,-88C218,-88 171,-88 171,-88 168,-88 165,-85 165,-82 165,-82 165,-76 165,-76 165,-73 168,-70 171,-70 171,-70 218,-70 218,-70 221,-70 224,-73 224,-76 224,-76 224,-82 224,-82 224,-85 221,-88 218,-88"/>
<text text-anchor="middle" x="194.5" y="-76.8" font-family="Helvetica,sans-Serif" font-size="9.00">service.ts</text>
</a>
</g>
</g>
<!-- src/controller.ts&#45;&gt;src/service.ts -->
<g id="edge1" class="edge">
<title>src/controller.ts&#45;&gt;src/service.ts</title>
<path fill="none" stroke="#000000" stroke-width="2" stroke-opacity="0.200000" d="M152.05,-79C154.16,-79 156.28,-79 158.39,-79"/>
<polygon fill="#000000" fill-opacity="0.200000" stroke="#000000" stroke-width="2" stroke-opacity="0.200000" points="158.67,-81.1 164.67,-79 158.67,-76.9 158.67,-81.1"/>
</g>
<!-- src/utils.ts -->
<g id="node5" class="node">
<title>src/utils.ts</title>
<g id="a_node5"><a xlink:href="https://github.com/dragonman225-alt/shorturl/tree/master/backend/src/utils.ts" xlink:title="utils.ts">
<path fill="#ddfeff" stroke="black" d="M288,-112C288,-112 246,-112 246,-112 243,-112 240,-109 240,-106 240,-106 240,-100 240,-100 240,-97 243,-94 246,-94 246,-94 288,-94 288,-94 291,-94 294,-97 294,-100 294,-100 294,-106 294,-106 294,-109 291,-112 288,-112"/>
<text text-anchor="middle" x="267" y="-100.8" font-family="Helvetica,sans-Serif" font-size="9.00">utils.ts</text>
</a>
</g>
</g>
<!-- src/controller.ts&#45;&gt;src/utils.ts -->
<g id="edge2" class="edge">
<title>src/controller.ts&#45;&gt;src/utils.ts</title>
<path fill="none" stroke="#000000" stroke-width="2" stroke-opacity="0.200000" d="M143.33,-88.14C150.26,-90.38 157.85,-92.55 165,-94 187.57,-98.59 213.45,-100.84 233.37,-101.94"/>
<polygon fill="#000000" fill-opacity="0.200000" stroke="#000000" stroke-width="2" stroke-opacity="0.200000" points="233.51,-104.05 239.61,-102.26 233.73,-99.85 233.51,-104.05"/>
</g>
<!-- src/service.ts&#45;&gt;src/utils.ts -->
<g id="edge7" class="edge">
<title>src/service.ts&#45;&gt;src/utils.ts</title>
<path fill="none" stroke="#000000" stroke-width="2" stroke-opacity="0.200000" d="M222.15,-88.07C226.03,-89.39 230.06,-90.76 234.02,-92.11"/>
<polygon fill="#000000" fill-opacity="0.200000" stroke="#000000" stroke-width="2" stroke-opacity="0.200000" points="233.42,-94.13 239.78,-94.07 234.77,-90.15 233.42,-94.13"/>
</g>
<!-- src/entities/url.ts -->
<g id="node6" class="node">
<title>src/entities/url.ts</title>
<g id="a_node6"><a xlink:href="https://github.com/dragonman225-alt/shorturl/tree/master/backend/src/entities/url.ts" xlink:title="url.ts">
<path fill="#ddfeff" stroke="black" d="M288,-60C288,-60 246,-60 246,-60 243,-60 240,-57 240,-54 240,-54 240,-48 240,-48 240,-45 243,-42 246,-42 246,-42 288,-42 288,-42 291,-42 294,-45 294,-48 294,-48 294,-54 294,-54 294,-57 291,-60 288,-60"/>
<text text-anchor="middle" x="267" y="-48.8" font-family="Helvetica,sans-Serif" font-size="9.00">url.ts</text>
</a>
</g>
</g>
<!-- src/service.ts&#45;&gt;src/entities/url.ts -->
<g id="edge6" class="edge">
<title>src/service.ts&#45;&gt;src/entities/url.ts</title>
<path fill="none" stroke="#000000" stroke-width="2" stroke-opacity="0.200000" d="M217.47,-69.87C222.25,-67.91 227.29,-65.87 232,-64 233.44,-63.43 234.91,-62.85 236.41,-62.27"/>
<polygon fill="#000000" fill-opacity="0.200000" stroke="#000000" stroke-width="2" stroke-opacity="0.200000" points="237.36,-64.15 242.19,-60.02 235.84,-60.23 237.36,-64.15"/>
</g>
<!-- url -->
<g id="node8" class="node">
<title>url</title>
<path fill="#ffffcc" stroke="grey" d="M366,-112C366,-112 324,-112 324,-112 321,-112 318,-109 318,-106 318,-106 318,-100 318,-100 318,-97 321,-94 324,-94 324,-94 366,-94 366,-94 369,-94 372,-97 372,-100 372,-100 372,-106 372,-106 372,-109 369,-112 366,-112"/>
<text text-anchor="middle" x="345" y="-100.8" font-family="Helvetica,sans-Serif" font-size="9.00" fill="grey">url</text>
</g>
<!-- src/utils.ts&#45;&gt;url -->
<g id="edge8" class="edge">
<title>src/utils.ts&#45;&gt;url</title>
<path fill="none" stroke="#000000" stroke-dasharray="5,2" stroke-opacity="0.200000" d="M294.15,-103C299.77,-103 305.76,-103 311.58,-103"/>
<polygon fill="#000000" fill-opacity="0.200000" stroke="#000000" stroke-opacity="0.200000" points="311.8,-105.1 317.8,-103 311.8,-100.9 311.8,-105.1"/>
</g>
<!-- src/index.ts -->
<g id="node7" class="node">
<title>src/index.ts</title>
<g id="a_node7"><a xlink:href="https://github.com/dragonman225-alt/shorturl/tree/master/backend/src/index.ts" xlink:title="index.ts">
<path fill="#ddfeff" stroke="black" d="M64,-56C64,-56 22,-56 22,-56 19,-56 16,-53 16,-50 16,-50 16,-44 16,-44 16,-41 19,-38 22,-38 22,-38 64,-38 64,-38 67,-38 70,-41 70,-44 70,-44 70,-50 70,-50 70,-53 67,-56 64,-56"/>
<text text-anchor="middle" x="43" y="-44.8" font-family="Helvetica,sans-Serif" font-size="9.00">index.ts</text>
</a>
</g>
</g>
<!-- src/index.ts&#45;&gt;path -->
<g id="edge5" class="edge">
<title>src/index.ts&#45;&gt;path</title>
<path fill="none" stroke="#000000" stroke-dasharray="5,2" stroke-opacity="0.200000" d="M57.78,-37.79C65.11,-33.08 74.37,-27.43 83,-23 84.58,-22.19 86.21,-21.39 87.87,-20.61"/>
<polygon fill="#000000" fill-opacity="0.200000" stroke="#000000" stroke-opacity="0.200000" points="88.98,-22.41 93.58,-18.02 87.24,-18.59 88.98,-22.41"/>
</g>
<!-- src/index.ts&#45;&gt;src/api.ts -->
<g id="edge3" class="edge">
<title>src/index.ts&#45;&gt;src/api.ts</title>
<path fill="none" stroke="#000000" stroke-width="2" stroke-opacity="0.200000" d="M70.17,-47C74.64,-47 79.32,-47 83.92,-47"/>
<polygon fill="#000000" fill-opacity="0.200000" stroke="#000000" stroke-width="2" stroke-opacity="0.200000" points="84.12,-49.1 90.12,-47 84.12,-44.9 84.12,-49.1"/>
</g>
<!-- src/index.ts&#45;&gt;src/controller.ts -->
<g id="edge4" class="edge">
<title>src/index.ts&#45;&gt;src/controller.ts</title>
<path fill="none" stroke="#000000" stroke-width="2" stroke-opacity="0.200000" d="M64.58,-56.08C72.54,-59.6 81.75,-63.66 90.18,-67.38"/>
<polygon fill="#000000" fill-opacity="0.200000" stroke="#000000" stroke-width="2" stroke-opacity="0.200000" points="89.53,-69.39 95.87,-69.89 91.23,-65.55 89.53,-69.39"/>
</g>
</g>
</svg>
